<svg xmlns="http://www.w3.org/2000/svg" version="1.1" xmlns:xlink="http://www.w3.org/1999/xlink" xmlns:svgjs="http://svgjs.dev/svgjs" width="1000" height="415" viewBox="0 0 1000 415"><g transform="matrix(1,0,0,1,-0.43774423043555544,-0.5871808510637493)"><svg viewBox="0 0 339 141" data-background-color="#ffffff" preserveAspectRatio="xMidYMid meet" height="415" width="1000" xmlns="http://www.w3.org/2000/svg" xmlns:xlink="http://www.w3.org/1999/xlink"><g id="tight-bounds" transform="matrix(1,0,0,1,0.1483952941176483,0.19949999999997203)"><svg viewBox="0 0 338.7032094117647 140.60052000000002" height="140.60052000000002" width="338.7032094117647"><rect width="338.7032094117647" height="140.601" fill="url(#ebf31aa9-dd96-493c-bd33-81c32958f8ff)" mask="url(#625fe413-ef31-47ee-a6bf-ed8c415de294)" data-fill-palette-color="tertiary"></rect><g><svg viewBox="0 0 338.7032094117647 140.60052000000002" height="140.60052000000002" width="338.7032094117647"><g><svg viewBox="0 0 338.7032094117647 140.60052000000002" height="140.60052000000002" width="338.7032094117647"><g><path d="M0 140.601v-140.601h338.703v140.601z" fill="url(#ebf31aa9-dd96-493c-bd33-81c32958f8ff)" stroke="transparent" stroke-width="0" rx="0%" data-fill-palette-color="tertiary"></path><path d="M3.283 137.317v-134.034h332.137v134.034z" fill="#ffffff" stroke="transparent" stroke-width="0" rx="0%" data-fill-palette-color="quaternary"></path><path d="M9.85 130.751v-120.901h319.003v120.901z" fill="url(#ebf31aa9-dd96-493c-bd33-81c32958f8ff)" stroke="transparent" stroke-width="0" data-fill-palette-color="tertiary"></path></g><g transform="matrix(1,0,0,1,19.69974,19.69974)" id="textblocktransform"><svg viewBox="0 0 299.3037294117647 101.20104000000002" height="101.20104000000002" width="299.3037294117647" id="textblock"><g><svg viewBox="0 0 299.3037294117647 101.20104000000002" height="101.20104000000002" width="299.3037294117647"><g transform="matrix(1,0,0,1,0,0)"><svg width="299.3037294117647" viewBox="6.45 -41.55 135.74 45.9" height="101.20104000000002" data-palette-color="#ffffff"><path d="M39.05-27.55L39.05-27.55Q39.05-25.15 37.98-23.03 36.9-20.9 35-19.23 33.1-17.55 30.55-16.4 28-15.25 25-14.85L25-14.85Q25.75-12.6 26.83-10.23 27.9-7.85 29.15-5.65 30.4-3.45 31.75-1.6 33.1 0.25 34.4 1.45L34.4 1.45Q34.15 1.95 33.68 2.45 33.2 2.95 32.58 3.38 31.95 3.8 31.28 4.08 30.6 4.35 30 4.35L30 4.35Q28.9 4.35 27.9 3.3 26.9 2.25 25.88-0.03 24.85-2.3 23.73-5.93 22.6-9.55 21.25-14.65L21.25-14.65Q20.7-14.65 20.15-14.65 19.6-14.65 19.3-14.75L19.3-14.75Q18.95-14.95 18.55-15.45L18.55-15.45Q17.2-12.55 16.15-10 15.1-7.45 14.28-5.08 13.45-2.7 12.83-0.48 12.2 1.75 11.75 4.05L11.75 4.05Q10.05 3.65 8.8 2.6 7.55 1.55 6.45-0.35L6.45-0.35Q6.65-0.8 6.88-1.23 7.1-1.65 7.45-2.43 7.8-3.2 8.33-4.4 8.85-5.6 9.73-7.6 10.6-9.6 11.83-12.5 13.05-15.4 14.8-19.55L14.8-19.55Q15.6-21.4 16.18-22.8 16.75-24.2 17.2-25.48 17.65-26.75 18.03-28.03 18.4-29.3 18.8-30.95L18.8-30.95Q16.5-30.15 14.53-29.18 12.55-28.2 11.25-27.1L11.25-27.1Q10.8-27.4 10.33-28 9.85-28.6 9.45-29.33 9.05-30.05 8.75-30.8 8.45-31.55 8.4-32.15L8.4-32.15Q9.9-33.15 12.08-34 14.25-34.85 16.7-35.48 19.15-36.1 21.7-36.45 24.25-36.8 26.45-36.8L26.45-36.8Q32.45-36.8 35.75-34.33 39.05-31.85 39.05-27.55ZM26.25-32.7L26.85-31.75Q26.5-31.3 25.75-29.95 25-28.6 24.03-26.73 23.05-24.85 21.98-22.65 20.9-20.45 19.9-18.3L19.9-18.3Q23.65-18.3 26.8-19 29.95-19.7 32.25-20.98 34.55-22.25 35.83-23.98 37.1-25.7 37.1-27.8L37.1-27.8Q37.1-30.3 35.3-31.63 33.5-32.95 29.75-32.95L29.75-32.95Q28.9-32.95 28.05-32.88 27.2-32.8 26.25-32.7L26.25-32.7ZM55.2-20.7L55.2-20.7Q55-17.6 54.1-15.38 53.2-13.15 51.52-11.48 49.85-9.8 47.45-8.45 45.05-7.1 41.85-5.85L41.85-5.85Q41.85-5.55 41.82-5.23 41.8-4.9 41.8-4.55L41.8-4.55Q41.8-3.9 41.9-3.2 42-2.5 42.25-1.9 42.5-1.3 42.95-0.93 43.4-0.55 44.1-0.55L44.1-0.55Q45.45-0.55 46.75-1.15 48.05-1.75 49.22-2.63 50.4-3.5 51.42-4.53 52.45-5.55 53.25-6.4L53.25-6.4Q53.75-5.95 54.1-5.55L54.1-5.55Q51.85-2.55 49.17-0.58 46.5 1.4 44.1 1.95L44.1 1.95Q40.65 1.55 38.72-0.58 36.8-2.7 36.8-5.7L36.8-5.7Q36.8-7.75 37.37-9.88 37.95-12 38.97-13.98 40-15.95 41.37-17.7 42.75-19.45 44.32-20.75 45.9-22.05 47.57-22.8 49.25-23.55 50.9-23.55L50.9-23.55Q53.2-23.25 55.2-20.7ZM51.75-19.05L51.75-19.05Q50.4-18.85 48.95-17.95 47.5-17.05 46.22-15.55 44.95-14.05 43.9-12.05 42.85-10.05 42.25-7.75L42.25-7.75Q46.25-9.75 48.9-12.68 51.55-15.6 51.75-19.05ZM74.75-20.2L74.75-20.2Q75.25-20.2 75.92-20.03 76.6-19.85 77.15-19.58 77.7-19.3 78.07-19 78.45-18.7 78.45-18.45L78.45-18.45Q77.45-16.35 76.6-14.23 75.75-12.1 75.15-10.15 74.55-8.2 74.22-6.5 73.9-4.8 73.9-3.55L73.9-3.55Q73.9-2.15 74.2-1.23 74.5-0.3 75.2 0.1L75.2 0.1Q74.6 0.5 73.65 0.75 72.7 1 71.95 1L71.95 1Q69.25 1 69.25-2.7L69.25-2.7Q69.25-5.55 71.15-10.5L71.15-10.5Q70.15-8.2 68.85-6.18 67.55-4.15 66.2-2.6 64.85-1.05 63.47-0.08 62.1 0.9 60.95 1.1L60.95 1.1Q59.1 1 57.95-0.68 56.8-2.35 56.8-4.95L56.8-4.95Q56.8-7.75 58-10.85 59.2-13.95 61.07-16.6 62.95-19.25 65.15-21.03 67.35-22.8 69.4-22.9L69.4-22.9Q69.9-22.75 70.52-22.3 71.15-21.85 71.72-21.25 72.3-20.65 72.7-20.03 73.1-19.4 73.15-18.95L73.15-18.95Q71.15-18.65 69.02-17 66.9-15.35 65.17-13.03 63.45-10.7 62.35-8.05 61.25-5.4 61.25-3.1L61.25-3.1Q61.25-2.15 61.95-1.9L61.95-1.9Q63.4-2.2 65.3-4.38 67.2-6.55 69.9-11.1L69.9-11.1Q70.4-12 71.02-13.1 71.65-14.2 72.3-15.4 72.95-16.6 73.57-17.82 74.2-19.05 74.75-20.2ZM91.69-23.35L91.69-23.35Q92.69-23.35 93.99-22.75 95.29-22.15 96.29-21.2L96.29-21.2Q96.04-23.2 95.67-24.98 95.29-26.75 94.57-28.65 93.84-30.55 92.64-32.8 91.44-35.05 89.64-37.95L89.64-37.95Q89.79-38.4 90.32-39 90.84-39.6 91.52-40.13 92.19-40.65 92.92-41.05 93.64-41.45 94.29-41.55L94.29-41.55Q95.69-40 96.94-37.68 98.19-35.35 99.14-32.68 100.09-30 100.62-27.15 101.14-24.3 101.14-21.7L101.14-21.7Q101.14-19.1 100.57-16.35 99.99-13.6 98.97-10.98 97.94-8.35 96.59-6 95.24-3.65 93.67-1.8 92.09 0.05 90.39 1.23 88.69 2.4 86.99 2.7L86.99 2.7Q83.54 2.3 81.72 0.48 79.89-1.35 79.89-4.55L79.89-4.55Q79.89-6.25 80.42-8.25 80.94-10.25 81.82-12.23 82.69-14.2 83.87-16.07 85.04-17.95 86.37-19.45 87.69-20.95 89.04-22 90.39-23.05 91.69-23.35ZM86.59 0.7L86.59 0.7Q88.34 0.1 90.09-1.95 91.84-4 93.24-6.78 94.64-9.55 95.52-12.73 96.39-15.9 96.39-18.85L96.39-18.85Q96.39-19.7 96.39-19.9 96.39-20.1 96.34-20.3L96.34-20.3Q95.14-19.8 93.79-18.6 92.44-17.4 91.09-15.83 89.74-14.25 88.54-12.4 87.34-10.55 86.39-8.7 85.44-6.85 84.89-5.15 84.34-3.45 84.34-2.15L84.34-2.15Q84.34 0.35 86.59 0.7ZM120.34-20.7L120.34-20.7Q120.14-17.6 119.24-15.38 118.34-13.15 116.67-11.48 114.99-9.8 112.59-8.45 110.19-7.1 106.99-5.85L106.99-5.85Q106.99-5.55 106.97-5.23 106.94-4.9 106.94-4.55L106.94-4.55Q106.94-3.9 107.04-3.2 107.14-2.5 107.39-1.9 107.64-1.3 108.09-0.93 108.54-0.55 109.24-0.55L109.24-0.55Q110.59-0.55 111.89-1.15 113.19-1.75 114.37-2.63 115.54-3.5 116.57-4.53 117.59-5.55 118.39-6.4L118.39-6.4Q118.89-5.95 119.24-5.55L119.24-5.55Q116.99-2.55 114.32-0.58 111.64 1.4 109.24 1.95L109.24 1.95Q105.79 1.55 103.87-0.58 101.94-2.7 101.94-5.7L101.94-5.7Q101.94-7.75 102.52-9.88 103.09-12 104.12-13.98 105.14-15.95 106.52-17.7 107.89-19.45 109.47-20.75 111.04-22.05 112.72-22.8 114.39-23.55 116.04-23.55L116.04-23.55Q118.34-23.25 120.34-20.7ZM116.89-19.05L116.89-19.05Q115.54-18.85 114.09-17.95 112.64-17.05 111.37-15.55 110.09-14.05 109.04-12.05 107.99-10.05 107.39-7.75L107.39-7.75Q111.39-9.75 114.04-12.68 116.69-15.6 116.89-19.05ZM121.44-1L121.44-1Q121.69-2.45 122.31-4.83 122.94-7.2 123.79-9.88 124.64-12.55 125.59-15.25 126.54-17.95 127.44-20.1L127.44-20.1Q128.09-21.65 128.59-22.53 129.09-23.4 129.69-24L129.69-24Q130.39-23.9 131.14-23.65 131.89-23.4 132.59-23.05 133.29-22.7 133.84-22.33 134.39-21.95 134.69-21.6L134.69-21.6Q133.34-20 132.31-17.95 131.29-15.9 130.24-12.7L130.24-12.7Q132.94-15.1 135.01-17.3 137.09-19.5 138.89-22.2L138.89-22.2Q139.19-22.45 139.94-22.45L139.94-22.45Q140.64-22.45 141.29-22.23 141.94-22 142.19-21.6L142.19-21.6Q141.29-19.2 141.29-16.85L141.29-16.85Q141.29-14.65 141.94-13.55L141.94-13.55Q141.89-13.25 141.26-12.4 140.64-11.55 139.89-10.8L139.89-10.8Q138.54-11.5 137.49-12.73 136.44-13.95 135.94-15.4L135.94-15.4Q133.59-13.75 131.94-12.18 130.29-10.6 129.11-8.68 127.94-6.75 127.11-4.25 126.29-1.75 125.54 1.7L125.54 1.7Q125.09 1.65 124.46 1.38 123.84 1.1 123.21 0.7 122.59 0.3 122.09-0.15 121.59-0.6 121.44-1Z" opacity="1" transform="matrix(1,0,0,1,0,0)" fill="#ffffff" class="wordmark-text-0" data-fill-palette-color="quaternary" id="text-0"></path></svg></g></svg></g></svg></g></svg></g><g></g></svg></g><defs></defs><mask id="625fe413-ef31-47ee-a6bf-ed8c415de294"><g id="SvgjsG1027"><svg viewBox="0 0 338.7032094117647 140.60052000000002" height="140.60052000000002" width="338.7032094117647"><g><svg viewBox="0 0 338.7032094117647 140.60052000000002" height="140.60052000000002" width="338.7032094117647"><g><svg viewBox="0 0 338.7032094117647 140.60052000000002" height="140.60052000000002" width="338.7032094117647"><g><path d="M0 140.601v-140.601h338.703v140.601z" fill="white" stroke="transparent" stroke-width="0" rx="0%"></path><path d="M9.85 130.751v-120.901h319.003v120.901z" fill="white" stroke="transparent" stroke-width="0"></path></g><g transform="matrix(1,0,0,1,19.69974,19.69974)" id="SvgjsG1026"><svg viewBox="0 0 299.3037294117647 101.20104000000002" height="101.20104000000002" width="299.3037294117647" id="SvgjsSvg1025"><g><svg viewBox="0 0 299.3037294117647 101.20104000000002" height="101.20104000000002" width="299.3037294117647"><g transform="matrix(1,0,0,1,0,0)"><svg width="299.3037294117647" viewBox="6.45 -41.55 135.74 45.9" height="101.20104000000002" data-palette-color="#ffffff"></svg></g></svg></g></svg></g></svg></g><g></g></svg></g><defs><mask></mask></defs></svg></g></mask><linearGradient x1="0.054" x2="0.941" y1="0.5" y2="0.5" id="ebf31aa9-dd96-493c-bd33-81c32958f8ff"><stop stop-color="#26282a" offset="0"></stop><stop stop-color="#9e9fa0" offset="0.498"></stop><stop stop-color="#26282a" offset="1"></stop></linearGradient></svg><rect width="338.7032094117647" height="140.60052000000002" fill="none" stroke="none" visibility="hidden"></rect></g></svg></g></svg>